<svg width="51" height="51" viewBox="0 0 51 51" fill="none" xmlns="http://www.w3.org/2000/svg">
<path d="M17.625 31.5C17.625 34.3995 19.9755 36.75 22.875 36.75H27.75C30.8566 36.75 33.375 34.2316 33.375 31.125C33.375 28.0184 30.8566 25.5 27.75 25.5H23.25C20.1434 25.5 17.625 22.9816 17.625 19.875C17.625 16.7684 20.1434 14.25 23.25 14.25H28.125C31.0245 14.25 33.375 16.6005 33.375 19.5M25.5 10.875V14.25M25.5 36.75V40.125M48 25.5C48 37.9264 37.9264 48 25.5 48C13.0736 48 3 37.9264 3 25.5C3 13.0736 13.0736 3 25.5 3C37.9264 3 48 13.0736 48 25.5Z" stroke="#0047BB" stroke-width="5" stroke-linecap="round" stroke-linejoin="round"/>
</svg>
