<svg width="56" height="51" viewBox="0 0 56 51" fill="none" xmlns="http://www.w3.org/2000/svg">
<path d="M53 48V43C53 38.3404 49.8131 34.4252 45.5 33.315M36.75 3.7269C40.4148 5.21036 43 8.80328 43 13C43 17.1967 40.4148 20.7896 36.75 22.2731M40.5 48C40.5 43.3406 40.5 41.0109 39.7388 39.1732C38.7239 36.7229 36.7771 34.7761 34.3268 33.7612C32.4891 33 30.1594 33 25.5 33H18C13.3406 33 11.0109 33 9.17317 33.7612C6.72288 34.7761 4.77614 36.7229 3.7612 39.1732C3 41.0109 3 43.3406 3 48M31.75 13C31.75 18.5228 27.2728 23 21.75 23C16.2272 23 11.75 18.5228 11.75 13C11.75 7.47715 16.2272 3 21.75 3C27.2728 3 31.75 7.47715 31.75 13Z" stroke="#0047BB" stroke-width="5" stroke-linecap="round" stroke-linejoin="round"/>
</svg>
