<svg width="22" height="24" viewBox="0 0 22 24" fill="none" xmlns="http://www.w3.org/2000/svg">
<path d="M1.94849 6.08398H3.94849M3.94849 6.08398H19.9485M3.94849 6.08398V20.084C3.94849 20.6144 4.1592 21.1231 4.53427 21.4982C4.90935 21.8733 5.41805 22.084 5.94849 22.084H15.9485C16.4789 22.084 16.9876 21.8733 17.3627 21.4982C17.7378 21.1231 17.9485 20.6144 17.9485 20.084V6.08398H3.94849ZM6.94849 6.08398V4.08398C6.94849 3.55355 7.1592 3.04484 7.53427 2.66977C7.90935 2.2947 8.41805 2.08398 8.94849 2.08398H12.9485C13.4789 2.08398 13.9876 2.2947 14.3627 2.66977C14.7378 3.04484 14.9485 3.55355 14.9485 4.08398V6.08398M8.94849 11.084V17.084M12.9485 11.084V17.084" stroke="#0047BB" stroke-width="2.5" stroke-linecap="round" stroke-linejoin="round"/>
</svg>
