<svg width="23" height="23" viewBox="0 0 23 23" fill="none" xmlns="http://www.w3.org/2000/svg">
<path d="M10.1765 3.83371H3.46818C2.95985 3.83371 2.47234 4.03565 2.11289 4.39509C1.75345 4.75454 1.55151 5.24205 1.55151 5.75038V19.167C1.55151 19.6754 1.75345 20.1629 2.11289 20.5223C2.47234 20.8818 2.95985 21.0837 3.46818 21.0837H16.8848C17.3932 21.0837 17.8807 20.8818 18.2401 20.5223C18.5996 20.1629 18.8015 19.6754 18.8015 19.167V12.4587M17.364 2.39621C17.7453 2.01496 18.2623 1.80078 18.8015 1.80078C19.3407 1.80078 19.8578 2.01496 20.239 2.39621C20.6203 2.77746 20.8344 3.29455 20.8344 3.83371C20.8344 4.37288 20.6203 4.88996 20.239 5.27121L11.1348 14.3754L7.30151 15.3337L8.25985 11.5004L17.364 2.39621Z" stroke="#0047BB" stroke-width="2.5" stroke-linecap="round" stroke-linejoin="round"/>
</svg>
