<svg width="22" height="22" viewBox="0 0 22 22" fill="none" xmlns="http://www.w3.org/2000/svg">
<path d="M14.9375 6.63705C12.6875 8.98488 12.125 11.3523 9.3125 15.461L7.0625 11.9393M11.7031 2H4.15625C3.58438 2 3.03593 2.23705 2.63155 2.65901C2.22718 3.08097 2 3.65326 2 4.25V17.75C2 17.75 2 18.682 2.63155 19.341C3.2631 20 4.15625 20 4.15625 20H10.2969H17.8437C18.4156 20 18.9641 19.7629 19.3684 19.341C19.7728 18.919 20 18.3467 20 17.75V4.25C20 4.25 20 3.31802 19.3684 2.65901C18.7369 2 17.8437 2 17.8437 2C15.3814 2 11.7031 2 11.7031 2Z" stroke="#0047BB" stroke-width="2.5" stroke-linecap="round" stroke-linejoin="round"/>
</svg>
