<svg width="25" height="24" viewBox="0 0 25 24" fill="none" xmlns="http://www.w3.org/2000/svg">
<path d="M12.5999 23.9995C9.41722 23.9995 6.36504 22.7352 4.11463 20.4847C1.86413 18.2344 0.599854 15.1821 0.599854 11.9995C0.599854 8.81696 1.86413 5.7647 4.11463 3.51429C6.36495 1.26379 9.4173 -0.000488281 12.5999 -0.000488281C15.7824 -0.000488281 18.8347 1.26379 21.0851 3.51429C23.3356 5.76461 24.5999 8.81696 24.5999 11.9995C24.596 15.1809 23.3306 18.2309 21.0809 20.4805C18.8315 22.7301 15.7812 23.9956 12.6 23.9994L12.5999 23.9995ZM12.5999 1.7611C9.88449 1.7611 7.28046 2.83972 5.36005 4.75992C3.43985 6.67995 2.36123 9.28432 2.36123 11.9997C2.36123 14.7151 3.43985 17.3191 5.36005 19.2395C7.28008 21.1597 9.88444 22.2384 12.5999 22.2384C15.3153 22.2384 17.9192 21.1597 19.8397 19.2395C21.7599 17.3195 22.8385 14.7151 22.8385 11.9997C22.8353 9.28534 21.7555 6.68291 19.8361 4.76378C17.9168 2.84465 15.3143 1.76466 12.6002 1.76144L12.5999 1.7611Z" fill="#FF5A00"/>
<path d="M12.5999 10.4585C13.1472 10.4585 13.5908 11.0058 13.5908 11.4494V17.8346C13.5908 18.3819 13.1471 18.8255 12.5999 18.8255C12.0527 18.8255 11.609 18.2782 11.609 17.8346V11.4494C11.609 10.9021 12.0527 10.4585 12.5999 10.4585Z" fill="#FF5A00"/>
<path d="M14.0309 7.15581C14.0309 7.94614 13.39 8.58702 12.5997 8.58702C11.8093 8.58702 11.1685 7.94618 11.1685 7.15581C11.1685 6.36532 11.8093 5.72461 12.5997 5.72461C13.39 5.72461 14.0309 6.36528 14.0309 7.15581Z" fill="#FF5A00"/>
</svg>
