<svg width="46" height="51" viewBox="0 0 46 51" fill="none" xmlns="http://www.w3.org/2000/svg">
<path d="M8.67 4.44L5.16 9.12C4.46479 10.0469 4.11718 10.5104 4.12524 10.8984C4.13226 11.236 4.29056 11.5526 4.55644 11.7608C4.86196 12 5.44131 12 6.6 12H39.9C41.0587 12 41.638 12 41.9436 11.7608C42.2094 11.5526 42.3677 11.236 42.3748 10.8984C42.3828 10.5104 42.0352 10.0469 41.34 9.12L37.83 4.44M8.67 4.44C9.066 3.912 9.264 3.648 9.51493 3.4576C9.73718 3.28895 9.98885 3.16312 10.2571 3.0865C10.56 3 10.89 3 11.55 3H34.95C35.61 3 35.94 3 36.2429 3.0865C36.5111 3.16312 36.7628 3.28895 36.9851 3.4576C37.236 3.648 37.434 3.912 37.83 4.44M8.67 4.44L4.44 10.08C3.90571 10.7924 3.63857 11.1486 3.44887 11.5408C3.28054 11.8889 3.15777 12.2572 3.08359 12.6367C3 13.0643 3 13.5095 3 14.4L3 40.8C3 43.3202 3 44.5804 3.49047 45.543C3.9219 46.3897 4.61031 47.0781 5.45704 47.5095C6.41965 48 7.67976 48 10.2 48L36.3 48C38.8202 48 40.0804 48 41.043 47.5095C41.8897 47.0781 42.5781 46.3897 43.0095 45.543C43.5 44.5804 43.5 43.3202 43.5 40.8V14.4C43.5 13.5095 43.5 13.0643 43.4164 12.6367C43.3422 12.2572 43.2195 11.8889 43.0511 11.5408C42.8614 11.1486 42.5943 10.7924 42.06 10.08L37.83 4.44M32.25 21C32.25 23.3869 31.3018 25.6761 29.614 27.364C27.9261 29.0518 25.6369 30 23.25 30C20.8631 30 18.5739 29.0518 16.886 27.364C15.1982 25.6761 14.25 23.3869 14.25 21" stroke="#ff5a00" stroke-width="5" stroke-linecap="round" stroke-linejoin="round"/>
</svg>
