<svg width="54" height="51" viewBox="0 0 54 51" fill="none" xmlns="http://www.w3.org/2000/svg">
<path d="M12.6 12.4136L23.4 23.0039M12.6 12.4136H5.4L3 5.3534L5.4 3L12.6 5.3534V12.4136ZM44.4216 4.7439L38.1153 10.9277C37.1649 11.8597 36.6896 12.3257 36.5116 12.863C36.355 13.3357 36.355 13.8449 36.5116 14.3175C36.6896 14.8549 37.1648 15.3209 38.1153 16.2528L38.6847 16.8112C39.6352 17.7432 40.1104 18.2092 40.6584 18.3838C41.1404 18.5374 41.6596 18.5374 42.1416 18.3838C42.6896 18.2092 43.1649 17.7432 44.1153 16.8112L50.0143 11.0268C50.6496 12.5427 51 14.2031 51 15.9437C51 23.0923 45.0902 28.8874 37.8 28.8874C36.9211 28.8874 36.0623 28.8031 35.2314 28.6424C34.0647 28.4168 33.4813 28.304 33.1276 28.3385C32.7517 28.3753 32.5664 28.4306 32.2332 28.6054C31.9199 28.7698 31.6055 29.078 30.9769 29.6945L13.8 46.5378C11.8118 48.4874 8.58823 48.4874 6.6 46.5378C4.61178 44.5882 4.61178 41.4272 6.6 39.4776L23.7769 22.6343C24.4055 22.0179 24.7199 21.7096 24.8876 21.4023C25.0658 21.0757 25.1222 20.894 25.1597 20.5253C25.1949 20.1785 25.0799 19.6065 24.8498 18.4624C24.6859 17.6477 24.6 16.8055 24.6 15.9437C24.6 8.79508 30.5098 3 37.8 3C40.2132 3 42.4752 3.635 44.4216 4.7439ZM27.0001 33.594L40.2 46.5376C42.1882 48.4872 45.4118 48.4872 47.4 46.5376C49.3882 44.5879 49.3882 41.427 47.3999 39.4774L36.5408 28.8292C35.772 28.7579 35.0225 28.6219 34.2979 28.4269C33.3641 28.1756 32.3399 28.358 31.6552 29.0294L27.0001 33.594Z" stroke="#ff5a00" stroke-width="5" stroke-linecap="round" stroke-linejoin="round"/>
</svg>

