<svg width="22" height="24" viewBox="0 0 22 24" fill="none" xmlns="http://www.w3.org/2000/svg">
<path d="M22 2V22C21.9994 22.5302 21.7885 23.0386 21.4135 23.4135C21.0386 23.7885 20.5302 23.9994 20 24H15.5C14.9698 23.9994 14.4614 23.7885 14.0865 23.4135C13.7115 23.0386 13.5006 22.5302 13.5 22V2C13.5006 1.46975 13.7115 0.961398 14.0865 0.586456C14.4614 0.211515 14.9698 0.000606423 15.5 0H20C20.5302 0.000606423 21.0386 0.211515 21.4135 0.586456C21.7885 0.961398 21.9994 1.46975 22 2V2ZM6.5 0H2C1.46975 0.000606423 0.961398 0.211515 0.586456 0.586456C0.211515 0.961398 0.000606423 1.46975 0 2V22C0.000606423 22.5302 0.211515 23.0386 0.586456 23.4135C0.961398 23.7885 1.46975 23.9994 2 24H6.5C7.03025 23.9994 7.5386 23.7885 7.91354 23.4135C8.28849 23.0386 8.49939 22.5302 8.5 22V2C8.49939 1.46975 8.28849 0.961398 7.91354 0.586456C7.5386 0.211515 7.03025 0.000606423 6.5 0V0Z" fill="#F4AF2F"/>
</svg>
