<svg width="22" height="27" viewBox="0 0 22 27" fill="none" xmlns="http://www.w3.org/2000/svg">
<path d="M22 13.0011C22.0013 13.3441 21.9138 13.6815 21.7461 13.9807C21.5784 14.2799 21.3361 14.5306 21.0428 14.7084L3.04351 25.7084C2.74033 25.8938 2.39323 25.9951 2.03793 26.0018C1.68262 26.0085 1.33194 25.9204 1.02196 25.7467C0.71199 25.5729 0.453915 25.3196 0.274295 25.013C0.0946747 24.7064 -4.0021e-06 24.3574 1.26881e-10 24.002V2.0001C-3.82802e-06 1.64473 0.0946747 1.29578 0.274295 0.989146C0.453915 0.682513 0.71199 0.429274 1.02196 0.255485C1.33194 0.0816965 1.68262 -0.00636626 2.03793 0.000358193C2.39323 0.00708264 2.74033 0.108351 3.04351 0.293745L21.0428 11.2937C21.3361 11.4716 21.5784 11.7223 21.7461 12.0214C21.9138 12.3206 22.0013 12.6581 22 13.0011V13.0011Z" fill="#FF5A00"/>
</svg>
