<svg width="26" height="25" viewBox="0 0 26 25" fill="none" xmlns="http://www.w3.org/2000/svg">
<path d="M12.5393 0C15.0116 0 17.4283 0.733112 19.4839 2.10663C21.5395 3.48015 23.1417 5.43238 24.0878 7.71646C25.0339 10.0005 25.2814 12.5139 24.7991 14.9386C24.3168 17.3634 23.1263 19.5907 21.3781 21.3388C19.63 23.087 17.4027 24.2775 14.9779 24.7598C12.5532 25.2421 10.0398 24.9946 7.75576 24.0485C5.47169 23.1024 3.51945 21.5002 2.14594 19.4446C0.772418 17.389 0.0393066 14.9723 0.0393066 12.5C0.0430396 9.18594 1.3612 6.00868 3.70459 3.66529C6.04799 1.32189 9.22524 0.00373305 12.5393 0ZM12.5393 22.2222C14.4622 22.2222 16.3419 21.652 17.9407 20.5837C19.5395 19.5154 20.7856 17.997 21.5215 16.2205C22.2573 14.444 22.4498 12.4892 22.0747 10.6033C21.6996 8.71736 20.7736 6.98503 19.414 5.62535C18.0543 4.26567 16.3219 3.33972 14.436 2.96459C12.5501 2.58945 10.5953 2.78199 8.81877 3.51784C7.04227 4.25369 5.52386 5.49981 4.45557 7.09862C3.38728 8.69743 2.81708 10.5771 2.81708 12.5C2.82001 15.0776 3.84526 17.5488 5.66789 19.3714C7.49053 21.194 9.96171 22.2193 12.5393 22.2222V22.2222ZM6.52079 12.5C6.5208 12.8684 6.66713 13.2216 6.92759 13.4821C7.18806 13.7425 7.54132 13.8889 7.90968 13.8889H11.1504V17.1296C11.1504 17.498 11.2967 17.8513 11.5572 18.1117C11.8177 18.3722 12.1709 18.5185 12.5393 18.5185C12.9077 18.5185 13.2609 18.3722 13.5214 18.1117C13.7819 17.8513 13.9282 17.498 13.9282 17.1296V13.8889H17.1689C17.5373 13.8889 17.8906 13.7426 18.151 13.4821C18.4115 13.2216 18.5578 12.8684 18.5578 12.5C18.5578 12.1316 18.4115 11.7784 18.151 11.5179C17.8906 11.2574 17.5373 11.1111 17.1689 11.1111H13.9282V7.87037C13.9282 7.50201 13.7819 7.14874 13.5214 6.88828C13.2609 6.62781 12.9077 6.48148 12.5393 6.48148C12.1709 6.48148 11.8177 6.62781 11.5572 6.88828C11.2967 7.14874 11.1504 7.50201 11.1504 7.87037V11.1111H7.90968C7.54132 11.1111 7.18806 11.2574 6.92759 11.5179C6.66713 11.7784 6.5208 12.1316 6.52079 12.5Z" fill="#FF5A00"/>
</svg>
