<svg width="55" height="57" viewBox="0 0 55 57" fill="none" xmlns="http://www.w3.org/2000/svg">
<path d="M19.375 24.6667L24.7917 30.0833L36.9792 17.8958M21.8125 46.875L25.7667 52.1472C26.3547 52.9313 26.6487 53.3233 27.0092 53.4635C27.3249 53.5862 27.6751 53.5862 27.9908 53.4635C28.3513 53.3233 28.6453 52.9313 29.2333 52.1472L33.1875 46.875C33.9814 45.8164 34.3784 45.2871 34.8626 44.883C35.5082 44.3442 36.2704 43.9631 37.0888 43.7699C37.7026 43.625 38.3643 43.625 39.6875 43.625C43.4733 43.625 45.3662 43.625 46.8593 43.0065C48.8502 42.1819 50.4319 40.6002 51.2565 38.6093C51.875 37.1162 51.875 35.2233 51.875 31.4375V16C51.875 11.4496 51.875 9.17436 50.9894 7.43633C50.2105 5.90751 48.9675 4.66454 47.4387 3.88557C45.7006 3 43.4254 3 38.875 3H16.125C11.5746 3 9.29936 3 7.56133 3.88557C6.03251 4.66454 4.78954 5.90751 4.01057 7.43633C3.125 9.17436 3.125 11.4496 3.125 16V31.4375C3.125 35.2233 3.125 37.1162 3.74348 38.6093C4.56812 40.6002 6.14984 42.1819 8.1407 43.0065C9.63384 43.625 11.5267 43.625 15.3125 43.625C16.6357 43.625 17.2973 43.625 17.9112 43.7699C18.7296 43.9631 19.4918 44.3442 20.1374 44.883C20.6216 45.2871 21.0186 45.8164 21.8125 46.875Z" stroke="#ff5a00" stroke-width="5" stroke-linecap="round" stroke-linejoin="round"/>
</svg>
