<svg width="22" height="22" viewBox="0 0 22 22" fill="none" xmlns="http://www.w3.org/2000/svg">
<path d="M11 0C8.82441 0 6.69767 0.645139 4.88873 1.85383C3.07979 3.06253 1.66989 4.78049 0.83733 6.79048C0.00476613 8.80047 -0.213071 11.0122 0.211367 13.146C0.635804 15.2798 1.68345 17.2398 3.22183 18.7782C4.76021 20.3165 6.72022 21.3642 8.85401 21.7886C10.9878 22.2131 13.1995 21.9952 15.2095 21.1627C17.2195 20.3301 18.9375 18.9202 20.1462 17.1113C21.3549 15.3023 22 13.1756 22 11C21.9967 8.08363 20.8367 5.28765 18.7745 3.22547C16.7123 1.16329 13.9164 0.00330082 11 0V0ZM14.3846 13.5385C14.3846 13.7629 14.2955 13.9781 14.1368 14.1368C13.9781 14.2955 13.7629 14.3846 13.5385 14.3846H8.46154C8.23713 14.3846 8.02191 14.2955 7.86322 14.1368C7.70454 13.9781 7.61539 13.7629 7.61539 13.5385V8.46154C7.61539 8.23712 7.70454 8.0219 7.86322 7.86322C8.02191 7.70453 8.23713 7.61539 8.46154 7.61538H13.5385C13.7629 7.61539 13.9781 7.70453 14.1368 7.86322C14.2955 8.0219 14.3846 8.23712 14.3846 8.46154V13.5385Z" fill="#FF6868"/>
</svg>
